<svg id="e613b765-a21b-4502-9325-e6e5b4d66d88" data-name="Layer 1" xmlns="http://www.w3.org/2000/svg" width="929.54484" height="793.07015" viewBox="0 0 929.54484 793.07015"><title>folder</title><path d="M808.04953,514.426,549.94194,481.8907c-11.6984-97.31007,5.97553-192.311,36.15031-286.78621l258.10759,32.53527C805.25206,320.32433,793.81967,415.98657,808.04953,514.426Z" transform="translate(-135.22758 -53.46492)" fill="#f2f2f2"/><rect x="620.46188" y="239.32092" width="158.98061" height="17.08056" transform="translate(-98.73369 -139.05736) rotate(7.18442)" fill="#e80582"/><rect x="584.3123" y="280.00622" width="215.47786" height="8.54028" transform="translate(-94.24151 -137.78334) rotate(7.18442)" fill="#e80582" opacity="0.3"/><rect x="580.86159" y="307.38127" width="215.47786" height="8.54028" transform="translate(-90.84499 -137.13685) rotate(7.18442)" fill="#e80582" opacity="0.3"/><rect x="577.41087" y="334.75632" width="215.47786" height="8.54028" transform="translate(-87.44846 -136.49036) rotate(7.18442)" fill="#e80582" opacity="0.3"/><rect x="573.96016" y="362.13136" width="215.47786" height="8.54028" transform="translate(-84.05193 -135.84388) rotate(7.18442)" fill="#e80582" opacity="0.3"/><rect x="570.50945" y="389.50641" width="215.47786" height="8.54028" transform="translate(-80.65541 -135.19739) rotate(7.18442)" fill="#e80582" opacity="0.3"/><rect x="567.05874" y="416.88146" width="215.47786" height="8.54028" transform="translate(-77.25888 -134.5509) rotate(7.18442)" fill="#e80582" opacity="0.3"/><rect x="563.60803" y="444.25651" width="215.47786" height="8.54028" transform="translate(-73.86235 -133.90442) rotate(7.18442)" fill="#e80582" opacity="0.3"/><path d="M685.822,418.558l-241.47528-96.7872c13.30533-97.1034,54.44283-184.5405,107.54133-268.30587l241.47528,96.7872C732.23048,230.0652,696.96406,319.72145,685.822,418.558Z" transform="translate(-135.22758 -53.46492)" fill="#e6e6e6"/><rect x="569.20294" y="124.77524" width="158.98061" height="17.08056" transform="translate(-39.06208 -285.23713) rotate(21.84171)" fill="#e80582"/><rect x="524.09611" y="162.27623" width="215.47786" height="8.54028" transform="translate(-27.90892 -276.57966) rotate(21.84171)" fill="#e80582" opacity="0.3"/><rect x="513.8308" y="187.88725" width="215.47786" height="8.54028" transform="translate(-19.11739 -270.92204) rotate(21.84171)" fill="#e80582" opacity="0.3"/><rect x="503.56549" y="213.49826" width="215.47786" height="8.54028" transform="translate(-10.32587 -265.26442) rotate(21.84171)" fill="#e80582" opacity="0.3"/><rect x="493.30018" y="239.10927" width="215.47786" height="8.54028" transform="translate(-1.53435 -259.60679) rotate(21.84171)" fill="#e80582" opacity="0.3"/><rect x="483.03487" y="264.72029" width="215.47786" height="8.54028" transform="translate(7.25718 -253.94917) rotate(21.84171)" fill="#e80582" opacity="0.3"/><rect x="472.76956" y="290.3313" width="215.47786" height="8.54028" transform="translate(16.0487 -248.29154) rotate(21.84171)" fill="#e80582" opacity="0.3"/><rect x="462.50425" y="315.94232" width="215.47786" height="8.54028" transform="translate(24.84022 -242.63392) rotate(21.84171)" fill="#e80582" opacity="0.3"/><path d="M626.10441,441.86819H365.95432c-23.7765-95.083-18.12247-191.54842,0-289.05566H626.10441C599.05388,249.64034,599.6751,345.98129,626.10441,441.86819Z" transform="translate(-135.22758 -53.46492)" fill="#f2f2f2"/><rect x="270.80036" y="128.91011" width="158.98061" height="17.08056" fill="#e80582"/><rect x="239.26702" y="170.29763" width="215.47786" height="8.54028" fill="#e80582" opacity="0.3"/><rect x="239.26702" y="197.88931" width="215.47786" height="8.54028" fill="#e80582" opacity="0.3"/><rect x="239.26702" y="225.48098" width="215.47786" height="8.54028" fill="#e80582" opacity="0.3"/><rect x="239.26702" y="253.07266" width="215.47786" height="8.54028" fill="#e80582" opacity="0.3"/><rect x="239.26702" y="280.66434" width="215.47786" height="8.54028" fill="#e80582" opacity="0.3"/><rect x="239.26702" y="308.25601" width="215.47786" height="8.54028" fill="#e80582" opacity="0.3"/><rect x="239.26702" y="335.84769" width="215.47786" height="8.54028" fill="#e80582" opacity="0.3"/><path d="M450.74936,384.16287l-89.62488-69.67719a10.23093,10.23093,0,0,0-8.86925-5.1311H303.88286a10.23092,10.23092,0,0,0-10.23092,10.23092V746.52659a33.18514,33.18514,0,0,0,33.18514,33.18514H823.39922a33.18513,33.18513,0,0,0,33.18513-33.18514V414.32549a30.16262,30.16262,0,0,0-30.16261-30.16262Z" transform="translate(-135.22758 -53.46492)" fill="#3f3d56"/><rect x="614.39961" y="429.7086" width="90.06919" height="31.52422" fill="#e80582"/><path d="M135.22758,844.57613s411.93965-235.58721,909.3762,0" transform="translate(-135.22758 -53.46492)" fill="#f2f2f2"/><path d="M223.454,303.94988s4.42119,23.43227,1.32636,25.20074a53.74333,53.74333,0,0,0-7.07389,5.30542l7.95813,11.053,19.01108,3.97906,18.12685-16.80049V315.88708s-5.30542-8.40025-4.42118-13.70567S223.454,303.94988,223.454,303.94988Z" transform="translate(-135.22758 -53.46492)" fill="#fbbebe"/><path d="M223.454,303.94988s4.42119,23.43227,1.32636,25.20074a53.74333,53.74333,0,0,0-7.07389,5.30542l7.95813,11.053,19.01108,3.97906,18.12685-16.80049V315.88708s-5.30542-8.40025-4.42118-13.70567S223.454,303.94988,223.454,303.94988Z" transform="translate(-135.22758 -53.46492)" opacity="0.1"/><path d="M192.94779,344.18264l-2.65271,1.32636s-5.74753,2.21059-8.40024,21.22168-8.84237,64.54926-7.07389,65.87562.88423,10.16872.88423,10.16872l13.26355-69.41257Z" transform="translate(-135.22758 -53.46492)" fill="#2f2e41"/><path d="M224.38658,236.281c-.40443.844-.54624,1.8294-.92568,2.68917-1.72313,3.90445-6.62842,3.03076-10.16651,4.50761-2.99639,1.25073-5.23273,4.68521-5.4672,8.3963-.09954,1.57556.13146,3.16464-.01015,4.73579-.2616,2.90222-1.758,5.458-2.29062,8.30907-1.29382,6.926,1.72508,17.86363,5.13383,14.12593,1.07493-1.17866,2.42043-1.96,3.5815-3.021,3.01545-2.75554,4.55121-7.13691,7.00061-10.57567a3.69671,3.69671,0,0,1,1.24359-1.23258c1.78979-.88936,3.38313,1.4911,4.798,3.05146a7.51228,7.51228,0,0,0,11.27-.2152,6.61413,6.61413,0,0,1,1.58775-1.6222,3.38568,3.38568,0,0,1,2.20652-.21655,14.48612,14.48612,0,0,1,8.83422,5.26c1.18143,1.44593,2.16941,3.14708,3.58553,4.26811s3.48219,1.49036,4.75752.158c2.56678,1.81466,3.52423,5.66688,3.531,9.17492s-.7119,6.99342-.53659,10.49547,1.55021,7.28166,4.341,8.56656a12.47534,12.47534,0,0,1,4.61927-8.08163c1.90077-1.41475,4.21092-2.11563,5.81837-3.96208,3.21821-3.6967,2.19848-9.84564,2.32209-15.11951.15245-6.5047,2.40671-12.7234,2.805-19.21384.199-3.24358-.13609-6.7212-1.84325-9.28788a15.26182,15.26182,0,0,0-4.80717-4.16439l-15.17511-9.73568a6.47632,6.47632,0,0,0-2.24979-1.06732c-2.23395-.40083-4.16495,1.69429-6.28271,2.61755a12.7216,12.7216,0,0,1-5.51406.66882c-5.89112-.15962-7.54926.98449-11.5091-2.85376a2.79129,2.79129,0,0,0-2.39184-.798C230.28423,232.5139,225.6822,233.57715,224.38658,236.281Z" transform="translate(-135.22758 -53.46492)" fill="#2f2e41"/><polygon points="97.511 716.92 106.795 737.257 88.668 743.447 79.384 738.584 81.595 716.92 97.511 716.92" fill="#fbbebe"/><path d="M224.33819,787.62726s-14.5899-8.84236-17.24261-5.74754-23.87439,25.64286-23.87439,25.64286-32.71675,17.68473-7.516,20.33744,66.31774-15.47414,66.31774-15.47414,2.21059-23.87438.44212-24.3165-9.28448,3.97906-12.82143,2.65271A15.85373,15.85373,0,0,1,224.33819,787.62726Z" transform="translate(-135.22758 -53.46492)" fill="#2f2e41"/><polygon points="121.385 738.584 121.385 756.71 97.511 751.405 102.816 732.836 121.385 738.584" fill="#fbbebe"/><path d="M232.29632,798.2381s24.3165-3.97906,26.5271,7.95813,7.95812,29.62192,2.21059,34.04311-35.36946,10.16872-35.81158,2.65271,3.09483-22.10592,3.09483-22.10592,2.21059-11.49507.88423-14.5899S232.29632,798.2381,232.29632,798.2381Z" transform="translate(-135.22758 -53.46492)" fill="#2f2e41"/><path d="M183.728,499.69477s-19.96,126.55933-3.60162,188.45588S207.97982,786.743,207.97982,786.743s28.29556-7.95813,28.29556-13.26355-11.053-84.00247-13.70566-91.51848-7.07389-10.16872-3.09483-16.35838,10.61084-45.9803,10.61084-45.9803,14.5899,65.87562,15.47414,67.6441S236.27538,790.28,236.27538,790.28s29.18453,21.17916,30.94828,5.30542c.44212-3.97906,19.89532-145.01479,19.89532-146.78326s7.95813-137.05666-4.8633-143.68844S183.728,499.69477,183.728,499.69477Z" transform="translate(-135.22758 -53.46492)" fill="#2f2e41"/><circle cx="105.46899" cy="229.26328" r="30.06404" fill="#fbbebe"/><path d="M234.06479,342.41417v-3.09483l-8.84236-14.5899s-8.84237.88424-10.16872,4.8633-16.35838,35.81158-16.35838,35.81158l-15.91626,142.8042s43.76971,10.61084,50.40149,3.09483,31.83251-171.09977,31.83251-171.09977L268.55,320.30826s-6.07328-8.84237-7.45782-7.516-24.3747,26.96921-24.3747,26.96921l-.44212,3.97907Z" transform="translate(-135.22758 -53.46492)" fill="#e80582"/><path d="M225.00137,321.85567s-8.17919-1.98953-10.8319,2.87377-2.65271,6.63177-5.30542,8.40025-18.12685,9.7266-19.01108,12.82143-19.89533,100.803-19.89533,100.803-9.28448,29.17981-4.8633,49.07513,1.32636,23.87438,10.61084,25.64286,10.61084,1.76847,10.61084-.88424,11.93719-92.40272,20.33744-98.59237,6.18966-73.83375,6.18966-73.83375,11.93719-14.5899,11.93719-16.8005S226.76984,321.68985,225.00137,321.85567Z" transform="translate(-135.22758 -53.46492)" fill="#2f2e41"/><path d="M249.98105,337.993c1.23349.20558,18.12685-21.6638,19.4532-20.77956s7.95813,12.37931,8.84237,12.37931,38.46429,9.28448,41.55912,26.5271-21.6638,72.06527-21.6638,72.06527-10.61084,31.3904-8.40025,45.09607a92.33161,92.33161,0,0,1-.88423,31.39039c-.88424,3.537-3.97907,7.516-3.09483,9.28449s-19.4532-2.21059-27.85345,2.65271-45.9803,8.40024-43.76971,3.09482,3.537-26.085,9.7266-48.19089,22.10592-74.27586,19.45321-77.81281S247.32834,337.55087,249.98105,337.993Z" transform="translate(-135.22758 -53.46492)" fill="#2f2e41"/><path d="M314.53032,350.81442l5.74753,5.30542s6.63178,11.49507,5.74754,16.80049,18.569,85.32883,10.61084,87.98154-26.96921,15.91625-29.17981,19.4532-7.516,9.7266-11.05295,11.49507-7.07389,4.8633-9.28449,3.09483-7.07389-38.02217-3.53694-39.34852,7.07389-5.30542,10.61084-5.30542,5.74753-3.53695,5.74753-6.63178-2.65271-21.66379-2.65271-21.66379l-5.74753-43.76971Z" transform="translate(-135.22758 -53.46492)" fill="#2f2e41"/><path d="M229.69061,240.68036c-.3576.638-.483,1.38295-.81849,2.0329-1.5236,2.95159-5.86088,2.29112-8.98928,3.40755a7.48785,7.48785,0,0,0-4.83411,6.34724c-.088,1.19106.11623,2.39233-.009,3.58006-.2313,2.19394-1.55445,4.126-2.02537,6.28129-1.144,5.23572,1.52532,13.50413,4.53935,10.67859.95045-.891,2.14016-1.48166,3.16678-2.28372,2.66628-2.08307,4.0242-5.3952,6.19-7.99475a3.08536,3.08536,0,0,1,1.09959-.93178c1.58254-.67232,2.99138,1.12721,4.24241,2.30677a7.41424,7.41424,0,0,0,9.96494-.16268,5.48152,5.48152,0,0,1,1.4039-1.22631,3.4624,3.4624,0,0,1,1.951-.16371,13.36681,13.36681,0,0,1,7.81126,3.97636,21.36315,21.36315,0,0,0,3.17034,3.22651c1.25213.84745,3.079,1.12664,4.20662.11946,2.26956,1.37181,3.11614,4.28391,3.12214,6.93584s-.62947,5.28672-.47446,7.93412,1.3707,5.50462,3.83834,6.476a9.23987,9.23987,0,0,1,4.08438-6.10936c1.68067-1.06949,3.72332-1.59933,5.14463-2.99516,2.84556-2.79455,1.94391-7.44288,2.0532-11.4297.1348-4.91727,2.128-9.61833,2.4802-14.52483.176-2.452-.12033-5.08093-1.62981-7.02123a13.12406,13.12406,0,0,0-4.25052-3.14809l-13.4179-7.35976a6.1977,6.1977,0,0,0-1.98928-.80684c-1.97527-.303-3.68267,1.28081-5.5552,1.97875a13.03789,13.03789,0,0,1-4.87555.5056c-5.209-.12066-6.67509.74423-10.17641-2.15732a2.73775,2.73775,0,0,0-2.11487-.60323C234.90535,237.83258,230.8362,238.63634,229.69061,240.68036Z" transform="translate(-135.22758 -53.46492)" fill="#2f2e41"/></svg>